<?xml version="1.0" encoding="UTF-8"?>
<svg id="_图层_1" data-name="图层 1" xmlns="http://www.w3.org/2000/svg" viewBox="0 0 72 72">
  <defs>
    <style>
      .cls-1 {
        fill: #fff;
      }

      .cls-2 {
        stroke: #fff;
        stroke-miterlimit: 10;
        stroke-width: 1.07px;
      }

      .cls-3 {
        fill: #f2d511;
      }
    </style>
  </defs>
  <g>
    <path class="cls-2" d="M64.6,31.92c-3.93-5.76-7.31-5.39-6.94-7.15,1.09-5.27,9.65-10.58,7.47-13.03-.84-.94-14.05,7.48-15.28,6.85-6.03-3.08-13.64-3.41-13.64-3.41,0,0-7.61,.23-13.69,3.23-1.24,.62-14.34-7.98-15.19-7.05-2.22,2.42,6.27,7.84,7.3,13.13,.34,1.77-3.03,1.35-7.04,7.06-4.82,6.87-4.42,12.83-4,17.23,.26,2.79,.87,6.55,4.59,10.22,6.73,6.64,27.71,5.31,27.71,5.31,0,0,20.96,1.61,27.78-4.94,3.77-3.62,4.42-7.37,4.72-10.16,.47-4.4,.96-10.35-3.77-17.28Z"/>
    <polyline class="cls-2" points="7.09 12.63 18.61 20.07 36.33 37.27"/>
    <path class="cls-2" d="M8.43,59.65s6.44,1.35,9.45,.09c5.59-2.34,17.46-15.03,17.46-15.03"/>
    <path class="cls-2" d="M21.25,18.14s2.54,1.44,5.18,3.37c5.46,3.98,9.93,9.4,9.93,9.4"/>
    <path class="cls-2" d="M63.14,60.01s-6.46,1.27-9.45-.03c-5.56-2.42-17.26-15.27-17.26-15.27"/>
    <path class="cls-2" d="M13.68,25.93s3.64-1.45,7.48,.93c4.14,2.57,14.89,10.33,14.89,10.33"/>
    <polyline class="cls-2" points="65.21 13.02 53.6 20.3 35.66 37.27"/>
    <path class="cls-2" d="M50.98,18.33s-2.56,1.41-5.23,3.31c-5.51,3.91-10.05,9.27-10.05,9.27"/>
    <path class="cls-2" d="M58.45,26.23s-3.62-1.5-7.49,.83c-4.17,2.51-15.02,10.13-15.02,10.13"/>
  </g>
  <polygon class="cls-3" points="35.06 38.51 29.6 50.42 32.28 52.12 35.92 56.19 36.05 37.11 35.06 38.51"/>
  <polygon class="cls-3" points="37.02 38.53 42.32 50.5 39.62 52.17 35.92 56.19 36.05 37.11 37.02 38.53"/>
  <circle class="cls-1" cx="25.84" cy="40.13" r="5.94"/>
  <circle cx="26.82" cy="39.32" r="3.79"/>
  <circle class="cls-1" cx="27.4" cy="40.24" r="2.24"/>
  <circle cx="26.57" cy="40.45" r="1.28"/>
  <circle class="cls-1" cx="45.98" cy="40.27" r="5.94"/>
  <circle cx="45.02" cy="39.44" r="3.79"/>
  <circle class="cls-1" cx="44.42" cy="40.35" r="2.24"/>
  <circle cx="45.25" cy="40.57" r="1.28"/>
</svg>